<?xml version="1.0" encoding="utf-8"?>
<!-- Generator: Adobe Illustrator 22.1.0, SVG Export Plug-In . SVG Version: 6.00 Build 0)  -->
<svg version="1.1" id="Layer_3" xmlns="http://www.w3.org/2000/svg" xmlns:xlink="http://www.w3.org/1999/xlink" x="0px" y="0px"
	 viewBox="0 0 1000 1000" enable-background="new 0 0 1000 1000" xml:space="preserve">
<linearGradient id="SVGID_1_" gradientUnits="userSpaceOnUse" x1="499.9097" y1="999.579" x2="499.9097" y2="-9.094947e-13">
	<stop  offset="0" style="stop-color:#FFFFFF"/>
	<stop  offset="0.261" style="stop-color:#FBFEFE"/>
	<stop  offset="0.5043" style="stop-color:#F0F9FC"/>
	<stop  offset="0.7407" style="stop-color:#DDF2F9"/>
	<stop  offset="0.9714" style="stop-color:#C3E8F4"/>
	<stop  offset="1" style="stop-color:#BFE7F3"/>
</linearGradient>
<rect fill="url(#SVGID_1_)" width="999.8" height="999.6"/>
<polygon fill="#00A0D2" points="522.8,865.6 617.3,579.8 188,588.4 187.7,588.1 188,587.8 477.8,298.1 478.1,297.7 187.5,297.7 
	187.5,797.6 125,797.6 125,235.3 505.3,235.3 505.5,235.1 506.9,233.7 383.5,110.3 0.1,110.3 0.1,999.6 999.8,999.6 999.8,409.7 
	999.1,330.6 "/>
<path fill="#F56E28" d="M1000,76.2H649.9L521.1,205l-1.5,1.5l-0.1,0.1l-0.4,0.4l-64.8,64.8l-0.3,0.3L151.6,574.5l-0.3,0.3l0.3,0.3
	l348.1,348.1l0.6,0.6l0.6-0.6l499.1-497 M799.4,375.4c-54.8,0-99.7-44.9-99.7-99.7c0-1.2,0-2.3,0.1-3.5c0-0.1,0-0.2,0-0.3
	c2-53.1,46-95.9,99.6-95.9c53.6,0,97.6,42.8,99.6,95.9c0,0.1,0,0.2,0,0.3c0,1.2,0.1,2.3,0.1,3.5
	C899.1,330.5,854.3,375.4,799.4,375.4z"/>
</svg>
